<?xml version="1.0" encoding="UTF-8"?>
<svg enable-background="new -16.872 -25.202 153.6 270.721" viewBox="-16.872 -25.202 153.6 270.721" xmlns="http://www.w3.org/2000/svg">
 <g>
  <path d="m117.07-10.644c-5.5831 3.9289-13.207 4.1503-18.044 9.7957-5.2084 3.9128-10.519 8.451-15.456 12.173-11.285-8.218-27.564-7.5424-39.5-0.96875-5.2208 1.0396-10.093 3.8648-11.406 9.3438-3.2595 8.5063-3.3054 18.011-1.375 26.844-1.9594 4.6986-2.4148 11.786 2.5 14.781-0.00216 18.839-2.3245 38.354-13.136 54.328-7.3845 11.786-13.715 24.954-12.941 39.265 0.70279 13.807-0.70929 27.515-1.8295 41.25-1.0301 8.4702 1.4952 17.737 9.0938 22.344 14.58 9.2433 33.106 12.706 50.094 9.4688 9.7513-2.4026 21.34-4.9417 26.844-14.031 5.3806-4.5129 4.2374-12.546 6.125-18.719 2.5066-12.146 0.25932-24.544 1.875-36.75-0.94762-9.0247-6.0929-17.06-8.8438-25.594-3.0821-6.4021-8.2685-12.349-7-20.031 0.768-9.5584-2.5912-18.814-1.1562-28.438 0.70695-9.9228 2.1986-19.898 2.0625-29.781 1.0634-2.3817 4.8542-2.792 4.7188-6.125 1.246-3.7382-2.6492-9.8668 2.875-10.5 8.2786-3.2766 15.986-8.9807 19.156-17.625 3.9946-6.475 13.493-10.142 12.668-19.031 0.06914-4.9062-1.3551-10.643-6.1988-12.906l-0.77875 0.62733-0.34625 0.27892z" fill="#fff"/>
  <path d="m22.086 130.74c1.3215 1.35 4.6882 1.747 3.9 4.08-0.73775 2.0043-3.9403 0.20552-4.38-1.44 0.05055-0.62989 1.5042-1.8342 0.24-1.68l0.12-0.48 0.12-0.48zm50.16-9.12c1.7911 0.6637 5.3859 1.2262 5.125 3.4692 1.282 2.9083-2.7033 1.3767-4.2953 0.97901-2.2948-0.33268-1.2462-2.9704-0.82978-4.4482zm-45.12 0.24c1.5965 1.1497 1.5334 3.4768 1.9328 4.8499 2.9352 0.4955 5.9925 0.00727 8.8672 0.91011 0.03285 1.9875-2.5927 1.657-3.9209 2.4865-1.0875 0.72185-4.06 0.61621-3.9275 1.4991 1.1001 2.2204-3.6728 2.7243-3.8081 0.23439-0.26904-1.6234-1.5674-3.3628-2.0575-4.3592 0.99978-1.8508 2.3894-3.5498 2.9139-5.6208zm25.44 0.24c5.6014 0.80348 11.272 1.8253 16.476 4.1251 1.5748 0.52922 3.0517 1.9761 1.0299 3.0768-2.4187 1.5749 1.3385 0.74992 2.1484 1.798 2.5122 0.88014-1.6213 1.0562-2.3696 1.8655-1.3575 0.27714-3.8437 3.4943-4.4447 1.3746-0.66536-1.6794-1.5979-3.4178-0.48208-5.159 1.1622-1.9062-0.09375-4.0103-2.3371-3.2066-3.0403 0.0797-6.3532 1.5053-9.2209-0.0685-1.5025-0.63818-0.94917-2.5139-0.79989-3.8059zm-14.88 0.72001c3.2879 0.50028 5.996 2.587 8.88 4.08-0.54367 2.4537-3.9116 2.4431-5.5948 1.0014-1.3403-1.2061-4.784-1.4949-4.071-3.7102 0.17332-0.50231 0.56715-0.89013 0.7858-1.3712zm10.8 5.28c1.9069 0.47844 4.3902-0.28503 5.7241 1.4031 1.3571 1.2927 3.2561 2.1466 4.1159 3.8769-2.2535 0.4183-4.5809 0.99575-6.9102 0.6377-1.8586-0.16664-3.2248-1.7648-4.8198-0.0677-1.0567-0.42764-2.4611-2.6245-2.19-4.41 1.6023-0.20779 3.7214 0.78071 4.08-1.44zm-9.84 4.32c2.5433 0.00169 4.2966 2.6889 3.36 5.04-2.5474 0.15671-4.3131-2.3065-3.39-4.65l0.03-0.39zm-18 3.36c2.6383 0.10723 5.2989 1.3316 7.0391 3.3199 1.983 2.4905-1.7877 2.4544-3.4391 2.4401 2.4848 1.5392 4.7869 3.3817 7.2 5.04-0.22357 1.8412-2.9311 4.3366-0.9465 5.7608 0.65019 1.5513-0.31934 3.8837-0.9735 5.5192-2.7174-0.18837-4.1554-2.8905-6.21-4.38-0.59907-1.3766-3.5556-0.92063-1.5426 0.35812 0.68799 0.96562 1.7091 2.4774-0.12803 1.9619-2.3492 0.65677-5.8786-0.14548-5.7481-3.1491 0.057-2.1742 0.33949-4.4228 1.2504-6.4143 1.3429 1.1324 3.7572 1.6174 5.7406 1.7716 1.2277-0.04445 4.5241 1.2584 3.2752-0.78688-2.8871-1.4368-5.7094-3.1018-8.18-5.1839-0.3257-0.60006 0.91306-3.3243 1.1048-2.7462 0.66253 1.5625 2.9021 0.48405 1.5838-1.0042-0.15388-0.82767-0.08461-1.6738-0.02605-2.507zm-5.279 30.24c2.2479-0.43534 5.2793-0.30961 7.02-0.6 0.6088-2.0416-3.1595-1.1404-4.2036-2.639-2.2926-0.95958-2.9995-2.8791-2.3664-5.191 0.10637-0.65366 1.5338 1.5027 2.4589 1.6974 1.8051 1.0851 3.7119 2.0375 5.7311 2.6526-0.80774-0.57413-2.4577-4.2645-0.73182-4.6901 1.9604 0.60677 5.3265 2.8276 4.1518 4.9301-0.9012 1.199-1.7592 8e-3 -2.7 0.48 1.3792 0.51348 0.51967 1.789-0.133 2.3256 1.2799 1.0214 4.9571 2.9415 4.1526 5.4751 0.19393 1.436-0.11412 1.2785-1.1875 0.5897-2.2039-1.0241-0.35158 3.0896 1.0078 3.3696 0.43723 2.7488-2.5595 0.81475-4.23 1.05-1.3684-0.4686-0.85024 2.3623-2.7215 1.5968-2.0245 0.12613-5.6796 2.6093-5.8232-0.81933-0.03482-1.6437-0.25318-3.3201 0.05471-4.9475-0.34957 1.5945 1.017 4.8486 2.88 3.36-1.6785-0.74356-1.6613-3.6492 0.65426-2.7282 1.2583 0.19527 2.7681 1.5276 1.9081-0.51184-0.25783-2.6091-3.9889-1.022-4.9964-2.9196-0.40285-2.5174-1.0407 3.2339-0.92592 0.39963 0-0.96 1e-5 -1.92-1e-5 -2.88zm7.92 2.16c-0.45151 0.96417-1.1565 2.0363 0.41012 1.6839 1.211-0.01984 3.1327 1.7891 1.3838-0.1565-0.55676-0.55628-1.1973-1.0167-1.7939-1.5274zm-3.841 12c1.6705 0.51599 4.8069-0.7623 5.2736 1.2067 2.0509 0.2299-0.28714 4.5597-2.1536 3.6532-1.973-0.1137-4.734-1.7331-3.8537-4.0304 0.17645-0.32875 0.44164-0.60171 0.73366-0.82956zm0.48 6.24c2.9534 0.69995 4.8488 3.3825 6.6021 5.6652 1.1022 1.6737 2.3634 3.3751 2.7579 5.3748 1.6818-1.5654 3.2183 0.65381 4.815 1.305 0.47578 1.4685-1.2134 2.8106-2.751 1.6948-2.6709-1.1698-3.0106-4.6258-5.424-6.1198-0.91979 0.90018 0.30031 5.1967-2.1805 4.3915-2.8832-1.9808-5.2582-4.6903-6.9395-7.7515 0.72297-1.2789 0.13984-3.3252 0.60004-4.14l2.52-0.42zm11.76 14.88c3.0315 0.92664 4.6943 3.7856 6.96 5.76-2.2184 2.5883-4.1588 5.6828-4.5968 9.1209 0.23208 1.9552-2.8626-0.03508-4.1632 0.11911-1.1485-0.07296-0.06886-2.4964-1.8-2.52 2.184-2.3346-1.4458-3.7377-2.3329-5.8988-0.77217-1.4819-1.8697-2.1821-3.1871-0.82115 0.30747 0.93074 1.7936 0.43389 0.46946 1.2703 0.12766 1.8315-0.69474 2.9988-2.5995 3.1997-0.62278 0.1836 0.83859 1.3107-0.44111 0.43458-2.1763-1.6778-4.3642-3.5168-5.8289-5.8646 1.8802 1.0907 4.7168 1.5604 5.67-0.57-0.5726-1.433-0.95997-2.899 1.1106-2.8685 2.0585-0.73359 3.9991 0.03221 5.1446 1.8151 2.0762 1.8445 4.3194 3.7216 7.0348 4.5034 0.98743-0.74703 1.5475-1.4753 0.04237-1.9656-1.8414-0.72687-4.466-4.3262-2.2548-5.4181 0.27895 0.18896 0.62514-0.07505 0.77245-0.29629zm8.64 0.72c2.9272 0.64514 5.5765 2.1333 8.16 3.6-3.007-0.00685 0.84912 2.0147 1.7275 2.8536 2.0728 1.2931 3.996 3.3 6.2525 4.0464 2.3526-0.94775 4.9149 0.02542 6.4118 2.0061 1.7874 1.1698 0.55719 3.7984-1.4708 2.6221-1.7058 0.15624-3.7411-2.3544-4.5956-2.0281-1.1725 2.5163-4.1519 0.23283-5.2113-1.337-1.4454-2.9237-4.0886-0.47322-6.3271 0.00993-2.0253 0.4894-4.3957 1.8266-6.3174 1.4213-0.75354-1.1245-3.9618-3.8254-1.0897-3.8343 1.5746-0.62484 4.6247 0.21883 4.2181-2.1667 0.87496-1.3224 3.5528-0.38712 2.0207-2.5304-0.82639-1.8755-2.5468-3.086-3.7788-4.6629zm40.56 1.2c2.0236 0.40853 5.474-0.47822 6.5982 0.77708-0.5201 1.9015-1.6455 4.4165-4.0177 4.1797-1.4051-0.35636-0.65632 2.0725-2.4615 1.2832-2.5537 0.48745-3.2879-2.5886-5.0065-3.7824-0.90622-0.81465 2.1202 0.42612 2.0065-1.0176 1.3417-0.80754 3.9722 2.5698 3.2404 0l-0.35944-1.44zm-30.24 1.92c1.4747 1.765 4.3269 0.81691 6.4387 0.99759 2.152-0.37549 2.8384 0.81169 1.9483 2.702-0.01175 2.0994-0.86049 3.8197-3.0875 2.6545-2.2551-1.3694-3.1228-4.2278-5.5394-5.3941l0.12-0.48 0.12-0.48zm23.52 0.47999c2.1369 0.73213 3.564 4.8227 0.43842 4.8679-1.2275 0.76115-0.06543 3.7588-2.3015 2.5721-3.3064-1.0285-6.5914-2.9402-8.4609-5.9343-0.35887-1.1741 2.6004-0.17985 3.5764-0.55089 2.21-0.21924 4.7563 0.12433 6.7476-0.95491zm-9.12 8.16c2.3516 0.40915 4.7535 0.71353 6.96 1.68 0.24516 2.07-0.47596 5.0878-3.09 4.9826-2.4838 0.14174-2.8566-3.2508-4.1118-4.8878-0.24229-0.83143-0.95143-1.3506 0.2418-1.7748zm-18.48 3.36c4.3422 0.31431 8.7184 0.42056 13.02 1.116 0.10105 0.04892-1.0947 0.48397 0.29983 0.32401 1.2474 0.11788 2.8737-0.44703 2.242 0.81473-0.07849 2.2242-2.2607 3.5013-4.4058 3.1877-2.4572 0.28503-3.6668-2.4383-5.9631-2.726-1.4545 0.46902-2.2009 2.9529-4.2921 1.9036-1.775 0.0607-3.9484-3.3144-2.7903-4.2l1.8893-0.41996z" fill="#a1b1c4"/>
  <path d="m110.6-12.273c3.8429 2.0963 4.4923 7.1879 4.7946 11.173 0.32248 6.2415-5.5024 10.126-9.1529 14.362-3.4954 4.1587-3.9642 10.212-8.3022 13.816-4.234 4.1588-9.5166 7.0912-14.97 9.3371-0.52859 4.5083 3.2766 12.368-1.9964 13.934-3.4464 3.4316-0.49817 7.5782-1.2609 11.891 0.10954 13.971-1.96 28.338 2.1754 41.956 0.77625 6.5292-0.54912 13.699 3.5139 19.44 2.7845 4.0414 5.533 8.0735 7.3316 12.677 2.5569 5.6262 5.4651 11.125 7.801 16.831 1.4251 5.6346-0.44127 11.394 0.69152 17.04 1.7002 11.958 0.57372 24.144-1.5239 35.977-0.26478 3.6894-3.3431 3.9068-4.2427 7.5264-5.59 6.475-14.122 9.2348-22.022 11.771-13.221 4.0774-27.606 2.6322-40.678-1.2931-7.8281-2.5671-16.913-7.264-18.396-16.234-2.0053-12.426 0.64557-25.022-0.73471-37.504-0.74996-11.415-2.5234-23.356 1.8417-34.311 4.8237-13.904 14.221-26.144 16.173-41.018 1.7789-10.999 1.7441-22.207 1.0234-33.299-4.1601 0.20274-5.2056-8.278-3.7152-10.943 1.4507-3.5564-1.9287-8.574-1.6916-12.95-0.24576-7.0389 0.20377-14.649 4.1-20.73 2.9521-2.2514 7.2535-2.9107 10.503-5.2082 8.479-4.8225 19.052-5.5482 28.336-2.8567 4.0512 0.8045 7.1647 6.1899 10.157 0.99396 6.0664-5.3057 11.961-10.832 18.135-15.999 3.8688-2.4217 8.7803-3.1013 12.109-6.3803zm-27.585 41.951c8.3481-1.0662 12.677-9.3176 16.66-15.764 2.8269-5.6328 8.362-9.3453 10.919-15.124-5.07 2.669-7.1404 8.4894-11.67 11.826-4.9964 4.3248-9.0434 9.7296-14.725 13.213-2.5421 0.83006-0.6251 3.7989-1.1844 5.8484zm-10.86-15.41c0.49486 3.9465-8.1311-1.7896-5.4414 3.3648 0.52159 2.3132 3.7587 4.763 4.9979 5.5248 3.3051-0.23074 5.5113-1.409 3.4267-4.808-0.48266-1.6563-0.77071-4.0975-2.9832-4.0817zm-29.533 8.1663c-3.5045 0.94214-4.3332 4.8666 0.06312 3.893 6.5462-0.3703 13.328-0.89904 19.392-3.5724 3.1553-2.3471-5.1533 0.33002-7.1032 0.06341-3.8803-0.0709-9.0294 2.2063-12.352-0.38393zm21.825-0.93291c-1.7186 1.0112 1.64-0.29288 0 0zm24.201 128.54c4.7242-1.4353 5.2287 7.4737 6.2432 7.3862-1.5798-8.604-4.788-16.983-9.3109-24.471-2.8436-5.6082-4.9511 3.0643-8.7694 3.944-7.914 4.918-17.244 8.6075-26.704 7.8662-2.7715 0.66908-9.4901-4.4851-4.8993-5.0112 9.7735 0.18594 20.538-0.76968 27.947-7.9075 3.1238-2.3851 8.9774-5.2815 6.2121-10.004-1.8751-6.0098-4.0216-12.035-3.8859-18.431-0.59643-4.9377-1.7448-9.7748-0.67005-14.763 0.33937-6.0042-0.11674-12.206-1.5242-17.972-0.17732-3.2308 1.6017-9.8696-1.0828-11.042-9.8878 2.6032-20.65 3.8193-30.473 0.29714-2.1255-0.51648-5.0314-2.212-3.5826 1.3391 1.2872 4.3082 1.2298 8.7476 0.93218 13.188-0.36072 13.085-0.72001 26.49-5.7298 38.789-2.6007 7.3972-6.3113 14.31-10.426 20.955-6.1453 14.282-5.0862 30.35-3.4034 45.446 1.4891 7.8675 0.88576 15.856 0.6056 23.796-0.4069 4.6479 0.23864 9.4602 4.8847 11.62 10.387 5.2064 22.461 6.286 33.898 5.1937 4.1707-1.0277 8.3792-0.14332 12.511-1.4857 4.2721-0.75328 7.2204-4.2993 11.342-5.4888 3.3847-1.4095 7.9893-3.2498 8.0493-7.5855 4.2496-0.88413 2.4121-7.3583 3.9225-10.705 0.02411-3.734 2.555-9.9466-1.2992-12.034-4.0958-2.7999-2.1198-7.9192-2.2129-11.996 0.099-4.061-0.19643-8.2132-0.73395-12.213-1.0236-2.7954-1.6654-5.7367-1.8391-8.7105zm-54.099-10.925c3.4804-0.73492 5.8477 1.1679 4.0417 4.3699 0.65299 4.835 1.4231 9.6732 0.42815 14.527-1.1653 12.448-1.4736 24.955-1.7817 37.447 12.632 6.1632 27.616 9.6148 41.291 4.8931 3.3293-1.5132 7.0056-6.0588 9.1669-0.74043 0.15336 5.74-7.9231 5.308-12.109 6.3781-4.685 1.4136-9.5055-0.22691-14.021 0.77946-2.8043 0.51716-4.4405-2.4569-7.4376-0.25996-4.3754-0.77698-8.2773-4.2117-12.898-4.6134-3.5128-2.0229-8.5352-4.0247-9.3557-8.4006 0.64598-4.6807 2.0211-9.2191 0.99429-14.009-0.91553-4.5606 0.87027-8.8986 1.1797-13.431 0.80535-8.9187 1.911-18.039 0.50236-26.941zm44.488 11.067c6.3543 1.702 3.795 8.2398 6.1735 13.037 1.5409 5.544 5.1959 11.39 3.1443 17.251-3.9711 1.6905-4.5092-6.58-5.274-9.6953-1.1442-1.9211-5.4431 1.3468-7.9784 0.34623-1.245 4.2873-1.8861 10.442-4.4311 13.274-5.0155-2.8314-3.1004-8.1689-1.2219-12.49 2.8013-7.4133 7.0454-14.21 9.5876-21.722zm-21.175 3.5363c3.3425-0.28798 11.136 1.1594 9.2493 5.4134-4.8233-1.4961-12.036-0.45914-14.933 3.3725 5.5071 3.4685 11.938 8.6602 11.194 15.905-0.59427 6.1907-8.7186 8.9532-13.809 6.4978-1.8051-1.9772-9.1268-7.2421-3.7372-8.5372 3.4105-0.80664 6.672 1.5816 4.5956 3.5637 5.8354 2.7812 10.68-6.8863 5.1834-10.009-3.331-2.8747-7.9959-5.3575-8.9782-9.9825 0.58756-4.7932 6.6508-4.4034 10.14-5.7317l0.5623-0.22785 0.53288-0.26379zm21.409 7.5116c-0.69057 2.2061-2.6506 5.2594 1.3049 4.3648 1.9723 0.72365 0.13209-4.4142-1.3049-4.3648z" fill="#015bae" fill-opacity=".73913"/>
 </g>
</svg>
